<svg version="1.1" id="Layer_1" xmlns="http://www.w3.org/2000/svg" xmlns:xlink="http://www.w3.org/1999/xlink" x="0px" y="0px"
	 width="100%" viewBox="0 0 496 496" enable-background="new 0 0 496 496" xml:space="preserve">
<path fill="#000000" opacity="1.000000" stroke="none" 
	d="
M189.445770,240.506653 
	C198.064621,247.095795 201.884888,255.328201 198.932266,265.668152 
	C195.651688,277.156494 187.124084,283.076660 175.838287,285.185516 
	C165.364441,287.142700 155.219925,286.085419 146.162491,279.923248 
	C143.535141,278.135712 141.658951,278.701691 139.525650,280.517853 
	C136.597687,283.010620 133.582489,285.400879 129.389771,285.289948 
	C124.847038,285.169769 122.328636,282.484161 123.535873,278.206848 
	C125.432266,271.487854 127.518631,264.786896 130.100952,258.308044 
	C132.282288,252.835220 138.333923,252.171295 142.808624,256.781799 
	C145.811966,259.876282 148.334686,263.439972 151.043289,266.817108 
	C154.234543,270.796021 158.430618,272.284271 163.412674,271.971619 
	C165.914291,271.814606 167.936234,271.041382 168.959167,268.501282 
	C170.019791,265.867584 168.844803,263.757660 167.026260,262.287384 
	C163.931854,259.785553 160.524277,257.669220 157.232162,255.414413 
	C154.348663,253.439438 151.294189,251.683105 148.572250,249.508499 
	C134.798676,238.504532 135.766830,219.241806 150.709259,209.850311 
	C162.668304,202.333908 175.186264,203.438721 187.519333,208.851654 
	C191.011902,210.384506 193.420151,210.431030 196.538345,208.049088 
	C201.902130,203.951767 206.283508,204.359344 211.054535,208.762589 
	C213.119415,205.870560 216.182648,205.573257 219.446838,205.627792 
	C224.776886,205.716858 230.109543,205.650070 235.441086,205.650513 
	C255.289474,205.652161 275.138000,205.697159 294.986115,205.620956 
	C299.024872,205.605438 302.974396,206.118561 306.855591,207.019852 
	C316.903870,209.353317 324.466309,214.677612 327.678741,226.019485 
	C329.171753,221.184311 330.425446,217.243927 331.602966,213.280884 
	C333.130890,208.138596 336.473358,205.619492 341.897766,205.635666 
	C360.391388,205.690826 378.885803,205.580261 397.378815,205.699692 
	C405.265533,205.750626 408.762756,211.872818 404.881348,218.696259 
	C403.669006,220.827591 401.927246,222.720795 400.178131,224.473846 
	C386.057098,238.626938 371.871918,252.715958 357.720337,266.838562 
	C356.114319,268.441254 354.594635,270.130432 352.435883,272.412964 
	C361.289734,273.399963 368.867188,274.177155 374.292511,266.322083 
	C376.150757,263.631653 378.706360,261.280243 381.342621,259.307465 
	C384.331055,257.071136 387.948303,256.725067 391.171631,258.912811 
	C394.322174,261.051147 393.224091,264.153625 392.341034,267.078522 
	C391.235168,270.741455 390.287659,274.456299 389.064819,278.078888 
	C387.522400,282.648285 384.314606,285.282593 379.377777,285.292572 
	C360.717712,285.330292 342.057404,285.326355 323.397369,285.274475 
	C319.647461,285.264038 316.565369,283.791412 314.868744,280.235016 
	C313.215851,276.770264 314.368286,273.573700 316.556549,270.935028 
	C319.843353,266.971680 323.466797,263.283813 327.004333,259.532776 
	C338.889832,246.929855 350.804443,234.354385 362.692810,221.754166 
	C363.462189,220.938690 364.103912,220.002716 365.173645,218.660095 
	C358.217468,217.469925 352.179657,217.178177 347.696869,223.230774 
	C346.610535,224.697525 345.222015,225.937439 344.094788,227.377426 
	C340.129883,232.442505 335.328369,234.953140 328.605774,232.220505 
	C327.635529,241.850174 325.405121,250.812103 321.640228,259.406982 
	C315.052979,274.444824 303.097809,282.086517 287.353333,284.250458 
	C270.446381,286.574188 253.419449,284.989288 236.447937,285.231445 
	C224.098450,285.407684 211.745010,285.314392 199.393341,285.324402 
	C197.729416,285.325745 196.023361,285.445496 194.410065,285.132660 
	C190.826157,284.437622 189.402298,281.004669 192.239151,279.031403 
	C198.373077,274.764740 199.739975,268.322327 201.545792,261.963043 
	C205.453491,248.201904 209.303146,234.424103 213.122986,220.638275 
	C213.969894,217.581802 214.509079,214.484680 210.764648,211.785126 
	C208.943436,217.542526 207.298569,222.889023 205.559372,228.204681 
	C203.185776,235.459259 197.965317,236.685120 192.433731,231.262817 
	C190.773209,229.635101 189.310226,227.802750 187.790863,226.034851 
	C185.597488,223.482712 183.086624,221.299194 180.143936,219.677246 
	C175.731812,217.245407 170.976486,217.565491 169.286896,220.556519 
	C166.642441,225.237915 170.138336,227.721725 173.262955,229.912506 
	C178.441330,233.543259 183.843811,236.854401 189.445770,240.506653 
M279.395203,239.761246 
	C276.370026,250.752502 273.344849,261.743744 270.321930,272.726807 
	C277.246124,274.634705 283.036835,271.918335 286.757690,265.139771 
	C291.844543,255.872711 294.666504,245.807129 296.679565,235.499908 
	C297.506042,231.268127 298.329346,227.035187 296.874512,222.706909 
	C295.545532,218.753143 292.664825,217.463882 288.848053,217.317947 
	C285.007324,217.171082 284.915985,220.225616 284.199982,222.682281 
	C282.620819,228.100861 281.132080,233.545761 279.395203,239.761246 
M240.180206,234.473755 
	C237.205566,245.017761 234.219925,255.558670 231.264603,266.108063 
	C230.593658,268.503174 229.890457,270.903412 229.457611,273.346527 
	C229.119873,275.252625 229.739471,277.117889 231.501755,278.087585 
	C233.113907,278.974670 234.261520,277.445068 235.453964,276.669617 
	C237.622574,275.259338 239.025269,273.248505 239.734329,270.740021 
	C244.566666,253.644485 249.418137,236.554352 254.248550,219.458282 
	C255.080612,216.513397 254.571198,213.980515 252.160385,212.142075 
	C246.911789,214.268326 244.434219,218.102829 243.305786,223.132492 
	C242.507599,226.690216 241.342682,230.165665 240.180206,234.473755 
z"/>
</svg>